<?xml version="1.0" encoding="UTF-8"?>
<svg width="305px" height="202px" viewBox="0 0 305 202" version="1.1" xmlns="http://www.w3.org/2000/svg" xmlns:xlink="http://www.w3.org/1999/xlink">
    <!-- Generator: Sketch 39.1 (31720) - http://www.bohemiancoding.com/sketch -->
    <title>Shape</title>
    <desc>Created with Sketch.</desc>
    <defs></defs>
    <g id="Page-1" stroke="none" stroke-width="1" fill="none" fill-rule="evenodd">
        <path d="M304.281,2.16 L304.281,4.041 C304.281,48.281 304.246,92.52 304.302,136.759 C304.32,150.713 300.065,163.187 291.617,174.183 C281.363,187.531 268.041,196.313 251.532,199.936 C247.773,200.761 243.854,201.224 240.009,201.227 C160.69,201.3 81.371,201.282 2.051,201.282 L0.239,201.282 L0.239,199.91 C0.239,166.11 -0.047,132.307 0.334,98.512 C0.614,73.629 7.983,50.892 23.832,31.365 C36.276,16.033 52.137,6.064 71.633,2.18 C76.707,1.169 81.838,0.777 87.016,0.908 C91.133,1.012 95.252,1.017 99.37,1.035 C112.968,1.097 126.566,1.137 140.163,1.202 C154.519,1.271 168.876,1.359 183.232,1.44 C197.507,1.52 211.784,1.6 226.059,1.68 C240.375,1.76 254.692,1.834 269.007,1.922 C280.322,1.992 291.639,2.08 302.955,2.159 C303.347,2.162 303.737,2.16 304.281,2.16 L304.281,2.16 Z M134.293,89.325 C130.014,88.095 125.763,86.692 121.422,85.668 C115.011,84.156 108.528,82.953 102.093,81.54 C99.325,80.932 96.567,80.189 94.199,78.523 C91.384,76.543 91.508,72.861 94.437,71.065 C95.007,70.715 95.652,70.382 96.299,70.286 C98.109,70.016 99.94,69.693 101.758,69.714 C108.279,69.788 114.61,71.047 120.79,73.102 C123.047,73.852 125.309,74.594 127.629,75.359 C131.862,65.244 137.061,55.861 145.202,48.252 C144.739,47.952 144.384,47.708 144.016,47.485 C140.019,45.066 135.681,43.456 131.209,42.204 C122.794,39.849 114.239,38.385 105.486,38.036 C96.3,37.669 87.282,38.429 78.571,41.554 C70.935,44.293 64.294,48.51 59.221,54.952 C53.18,62.624 50.872,71.431 51.335,81.081 C51.654,87.73 53.765,93.641 58.191,98.705 C61.755,102.782 66.101,105.764 70.884,108.184 C77.634,111.6 84.865,113.612 92.165,115.382 C98.449,116.907 104.781,118.236 111.071,119.735 C113.44,120.299 115.77,121.065 117.7,122.668 C119.846,124.45 119.851,127.297 117.732,129.111 C116.23,130.397 114.397,130.94 112.519,130.964 C108.573,131.014 104.599,131.106 100.682,130.716 C91.074,129.761 81.966,127.047 73.63,122.06 C71.108,120.55 68.697,118.853 66.166,117.195 C59.054,125.674 51.921,134.178 44.822,142.641 C44.912,142.83 44.929,142.919 44.982,142.968 C45.246,143.212 45.514,143.452 45.789,143.684 C53.533,150.209 62.318,154.82 71.929,157.917 C81.693,161.064 91.721,162.648 101.955,163.039 C111.562,163.406 121.048,162.699 130.275,159.79 C138.831,157.092 146.402,152.852 152.105,145.719 C152.193,145.61 152.341,145.549 152.51,145.432 C152.848,145.789 153.126,146.131 153.451,146.422 C159.343,151.713 166.014,155.733 173.388,158.597 C184.292,162.831 195.595,164.452 207.245,163.657 C216.224,163.045 225.113,161.949 233.425,158.136 C234.767,157.521 236.134,156.96 237.466,156.324 C243.364,153.5 248.692,149.741 254.116,146.138 C254.943,145.589 255.262,145.01 255.261,144.008 C255.23,126.249 255.239,108.49 255.239,90.732 L255.239,89.327 L196.343,89.327 L196.343,114.236 L217.241,114.236 C217.241,116.988 217.247,119.587 217.239,122.185 C217.228,125.996 214.793,129.026 211.021,129.524 C208.021,129.92 204.973,130.156 201.95,130.126 C194.888,130.056 188.509,127.899 183.118,123.216 C175.326,116.447 170.281,103.076 175.294,90.442 C178.814,81.568 188.065,72.399 201.092,72.416 C208.678,72.426 215.59,74.512 221.953,78.529 C224.068,79.864 226.082,81.361 228.2,82.823 C235.67,73.813 243.141,64.801 250.65,55.744 C250.336,55.451 250.086,55.2 249.818,54.971 C245.389,51.19 240.556,48.017 235.372,45.372 C225.859,40.518 215.727,38.089 205.096,37.543 C193.603,36.953 182.429,38.362 171.793,42.936 C154.711,50.284 142.742,62.513 136.702,80.245 C135.689,83.214 135.078,86.323 134.293,89.325 L134.293,89.325 Z" id="Shape" fill="#8E8E8E"></path>
    </g>
</svg>